<?xml version="1.0" encoding="UTF-8" standalone="no"?>
<!DOCTYPE svg PUBLIC "-//W3C//DTD SVG 1.1//EN"
 "http://www.w3.org/Graphics/SVG/1.1/DTD/svg11.dtd">
<!-- Generated by graphviz version 2.38.0 (20140413.2041)
 -->
<!-- Title: controllers_diagram Pages: 1 -->
<svg width="1144pt" height="1170pt"
 viewBox="0.00 0.00 1143.50 1169.50" xmlns="http://www.w3.org/2000/svg" xmlns:xlink="http://www.w3.org/1999/xlink">
<g id="graph0" class="graph" transform="scale(1 1) rotate(0) translate(466 641)">
<title>controllers_diagram</title>
<polygon fill="none" stroke="none" points="-466,528.5 -466,-641 677.5,-641 677.5,528.5 -466,528.5"/>
<!-- _diagram_info -->
<g id="node1" class="node"><title>_diagram_info</title>
<text text-anchor="start" x="-411.5" y="356.4" font-family="Times,serif" font-size="13.00">Controllers diagram</text>
<text text-anchor="start" x="-411.5" y="370.4" font-family="Times,serif" font-size="13.00">Date: May 30 2017 &#45; 10:25</text>
<text text-anchor="start" x="-411.5" y="384.4" font-family="Times,serif" font-size="13.00">Migration version: 20170527171347</text>
<text text-anchor="start" x="-411.5" y="398.4" font-family="Times,serif" font-size="13.00">Generated by RailRoady 1.5.2</text>
<text text-anchor="start" x="-411.5" y="412.4" font-family="Times,serif" font-size="13.00">http://railroady.prestonlee.com</text>
</g>
<!-- BuildJobsController -->
<g id="node2" class="node"><title>BuildJobsController</title>
<path fill="none" stroke="black" d="M-282,293.5C-282,293.5 -148,293.5 -148,293.5 -142,293.5 -136,287.5 -136,281.5 -136,281.5 -136,92.5 -136,92.5 -136,86.5 -142,80.5 -148,80.5 -148,80.5 -282,80.5 -282,80.5 -288,80.5 -294,86.5 -294,92.5 -294,92.5 -294,281.5 -294,281.5 -294,287.5 -288,293.5 -282,293.5"/>
<text text-anchor="middle" x="-215" y="95.7" font-family="Times,serif" font-size="14.00">BuildJobsController</text>
<polyline fill="none" stroke="black" points="-294,103.5 -136,103.5 "/>
<text text-anchor="start" x="-286" y="118.7" font-family="Times,serif" font-size="14.00">create</text>
<text text-anchor="start" x="-286" y="133.7" font-family="Times,serif" font-size="14.00">destroy</text>
<text text-anchor="start" x="-286" y="148.7" font-family="Times,serif" font-size="14.00">edit</text>
<text text-anchor="start" x="-286" y="163.7" font-family="Times,serif" font-size="14.00">index</text>
<text text-anchor="start" x="-286" y="178.7" font-family="Times,serif" font-size="14.00">new</text>
<text text-anchor="start" x="-286" y="193.7" font-family="Times,serif" font-size="14.00">show</text>
<text text-anchor="start" x="-286" y="208.7" font-family="Times,serif" font-size="14.00">update</text>
<polyline fill="none" stroke="black" points="-294,216.5 -136,216.5 "/>
<polyline fill="none" stroke="black" points="-294,240.5 -136,240.5 "/>
<text text-anchor="start" x="-286" y="255.7" font-family="Times,serif" font-size="14.00">_layout</text>
<text text-anchor="start" x="-286" y="270.7" font-family="Times,serif" font-size="14.00">build_job_params</text>
<text text-anchor="start" x="-286" y="285.7" font-family="Times,serif" font-size="14.00">set_build_job</text>
</g>
<!-- StepsController -->
<g id="node3" class="node"><title>StepsController</title>
<path fill="none" stroke="black" d="M369,356.5C369,356.5 475,356.5 475,356.5 481,356.5 487,350.5 487,344.5 487,344.5 487,125.5 487,125.5 487,119.5 481,113.5 475,113.5 475,113.5 369,113.5 369,113.5 363,113.5 357,119.5 357,125.5 357,125.5 357,344.5 357,344.5 357,350.5 363,356.5 369,356.5"/>
<text text-anchor="middle" x="422" y="128.7" font-family="Times,serif" font-size="14.00">StepsController</text>
<polyline fill="none" stroke="black" points="357,136.5 487,136.5 "/>
<text text-anchor="start" x="365" y="151.7" font-family="Times,serif" font-size="14.00">create</text>
<text text-anchor="start" x="365" y="166.7" font-family="Times,serif" font-size="14.00">destroy</text>
<text text-anchor="start" x="365" y="181.7" font-family="Times,serif" font-size="14.00">edit</text>
<text text-anchor="start" x="365" y="196.7" font-family="Times,serif" font-size="14.00">index</text>
<text text-anchor="start" x="365" y="211.7" font-family="Times,serif" font-size="14.00">new</text>
<text text-anchor="start" x="365" y="226.7" font-family="Times,serif" font-size="14.00">show</text>
<text text-anchor="start" x="365" y="241.7" font-family="Times,serif" font-size="14.00">update</text>
<polyline fill="none" stroke="black" points="357,249.5 487,249.5 "/>
<polyline fill="none" stroke="black" points="357,273.5 487,273.5 "/>
<text text-anchor="start" x="365" y="288.7" font-family="Times,serif" font-size="14.00">_layout</text>
<text text-anchor="start" x="365" y="303.7" font-family="Times,serif" font-size="14.00">set_project</text>
<text text-anchor="start" x="365" y="318.7" font-family="Times,serif" font-size="14.00">set_stage</text>
<text text-anchor="start" x="365" y="333.7" font-family="Times,serif" font-size="14.00">set_step</text>
<text text-anchor="start" x="365" y="348.7" font-family="Times,serif" font-size="14.00">step_params</text>
</g>
<!-- EnvironmentsController -->
<g id="node4" class="node"><title>EnvironmentsController</title>
<path fill="none" stroke="black" d="M117.5,335.5C117.5,335.5 284.5,335.5 284.5,335.5 290.5,335.5 296.5,329.5 296.5,323.5 296.5,323.5 296.5,164.5 296.5,164.5 296.5,158.5 290.5,152.5 284.5,152.5 284.5,152.5 117.5,152.5 117.5,152.5 111.5,152.5 105.5,158.5 105.5,164.5 105.5,164.5 105.5,323.5 105.5,323.5 105.5,329.5 111.5,335.5 117.5,335.5"/>
<text text-anchor="middle" x="201" y="167.7" font-family="Times,serif" font-size="14.00">EnvironmentsController</text>
<polyline fill="none" stroke="black" points="105.5,175.5 296.5,175.5 "/>
<text text-anchor="start" x="113.5" y="190.7" font-family="Times,serif" font-size="14.00">check_auth</text>
<text text-anchor="start" x="113.5" y="205.7" font-family="Times,serif" font-size="14.00">create</text>
<text text-anchor="start" x="113.5" y="220.7" font-family="Times,serif" font-size="14.00">index</text>
<text text-anchor="start" x="113.5" y="235.7" font-family="Times,serif" font-size="14.00">show</text>
<text text-anchor="start" x="113.5" y="250.7" font-family="Times,serif" font-size="14.00">status_update</text>
<polyline fill="none" stroke="black" points="105.5,258.5 296.5,258.5 "/>
<polyline fill="none" stroke="black" points="105.5,282.5 296.5,282.5 "/>
<text text-anchor="start" x="113.5" y="297.7" font-family="Times,serif" font-size="14.00">_layout</text>
<text text-anchor="start" x="113.5" y="312.7" font-family="Times,serif" font-size="14.00">environment_params</text>
<text text-anchor="start" x="113.5" y="327.7" font-family="Times,serif" font-size="14.00">set_environment</text>
</g>
<!-- Api::ApiController -->
<g id="node5" class="node"><title>Api::ApiController</title>
<path fill="none" stroke="black" d="M327.5,482C327.5,482 450.5,482 450.5,482 456.5,482 462.5,476 462.5,470 462.5,470 462.5,400 462.5,400 462.5,394 456.5,388 450.5,388 450.5,388 327.5,388 327.5,388 321.5,388 315.5,394 315.5,400 315.5,400 315.5,470 315.5,470 315.5,476 321.5,482 327.5,482"/>
<text text-anchor="middle" x="389" y="403.2" font-family="Times,serif" font-size="14.00">Api::ApiController</text>
<polyline fill="none" stroke="black" points="315.5,411 462.5,411 "/>
<polyline fill="none" stroke="black" points="315.5,435 462.5,435 "/>
<polyline fill="none" stroke="black" points="315.5,459 462.5,459 "/>
<text text-anchor="start" x="323.5" y="474.2" font-family="Times,serif" font-size="14.00">_layout</text>
</g>
<!-- Api::ProjectConfigsController -->
<g id="node6" class="node"><title>Api::ProjectConfigsController</title>
<path fill="none" stroke="black" d="M369.5,62.5C369.5,62.5 536.5,62.5 536.5,62.5 542.5,62.5 548.5,56.5 548.5,50.5 548.5,50.5 548.5,-108.5 548.5,-108.5 548.5,-114.5 542.5,-120.5 536.5,-120.5 536.5,-120.5 369.5,-120.5 369.5,-120.5 363.5,-120.5 357.5,-114.5 357.5,-108.5 357.5,-108.5 357.5,50.5 357.5,50.5 357.5,56.5 363.5,62.5 369.5,62.5"/>
<text text-anchor="middle" x="453" y="-105.3" font-family="Times,serif" font-size="14.00">Api::ProjectConfigsController</text>
<polyline fill="none" stroke="black" points="357.5,-97.5 548.5,-97.5 "/>
<text text-anchor="start" x="365.5" y="-82.3" font-family="Times,serif" font-size="14.00">create</text>
<text text-anchor="start" x="365.5" y="-67.3" font-family="Times,serif" font-size="14.00">get_by_name</text>
<text text-anchor="start" x="365.5" y="-52.3" font-family="Times,serif" font-size="14.00">index</text>
<text text-anchor="start" x="365.5" y="-37.3" font-family="Times,serif" font-size="14.00">show</text>
<polyline fill="none" stroke="black" points="357.5,-29.5 548.5,-29.5 "/>
<polyline fill="none" stroke="black" points="357.5,-5.5 548.5,-5.5 "/>
<text text-anchor="start" x="365.5" y="9.7" font-family="Times,serif" font-size="14.00">_layout</text>
<text text-anchor="start" x="365.5" y="24.7" font-family="Times,serif" font-size="14.00">project_config_params</text>
<text text-anchor="start" x="365.5" y="39.7" font-family="Times,serif" font-size="14.00">set_project_config</text>
<text text-anchor="start" x="365.5" y="54.7" font-family="Times,serif" font-size="14.00">set_project</text>
</g>
<!-- Api::ChangesetsController -->
<g id="node7" class="node"><title>Api::ChangesetsController</title>
<path fill="none" stroke="black" d="M117.5,104.5C117.5,104.5 300.5,104.5 300.5,104.5 306.5,104.5 312.5,98.5 312.5,92.5 312.5,92.5 312.5,-126.5 312.5,-126.5 312.5,-132.5 306.5,-138.5 300.5,-138.5 300.5,-138.5 117.5,-138.5 117.5,-138.5 111.5,-138.5 105.5,-132.5 105.5,-126.5 105.5,-126.5 105.5,92.5 105.5,92.5 105.5,98.5 111.5,104.5 117.5,104.5"/>
<text text-anchor="middle" x="209" y="-123.3" font-family="Times,serif" font-size="14.00">Api::ChangesetsController</text>
<polyline fill="none" stroke="black" points="105.5,-115.5 312.5,-115.5 "/>
<text text-anchor="start" x="113.5" y="-100.3" font-family="Times,serif" font-size="14.00">add_cookbook</text>
<text text-anchor="start" x="113.5" y="-85.3" font-family="Times,serif" font-size="14.00">create</text>
<text text-anchor="start" x="113.5" y="-70.3" font-family="Times,serif" font-size="14.00">destroy</text>
<text text-anchor="start" x="113.5" y="-55.3" font-family="Times,serif" font-size="14.00">index</text>
<text text-anchor="start" x="113.5" y="-40.3" font-family="Times,serif" font-size="14.00">notify</text>
<text text-anchor="start" x="113.5" y="-25.3" font-family="Times,serif" font-size="14.00">push</text>
<text text-anchor="start" x="113.5" y="-10.3" font-family="Times,serif" font-size="14.00">show</text>
<polyline fill="none" stroke="black" points="105.5,-2.5 312.5,-2.5 "/>
<polyline fill="none" stroke="black" points="105.5,21.5 312.5,21.5 "/>
<text text-anchor="start" x="113.5" y="36.7" font-family="Times,serif" font-size="14.00">_layout</text>
<text text-anchor="start" x="113.5" y="51.7" font-family="Times,serif" font-size="14.00">add_cookbook_params</text>
<text text-anchor="start" x="113.5" y="66.7" font-family="Times,serif" font-size="14.00">changeset_params</text>
<text text-anchor="start" x="113.5" y="81.7" font-family="Times,serif" font-size="14.00">set_changeset</text>
<text text-anchor="start" x="113.5" y="96.7" font-family="Times,serif" font-size="14.00">set_project</text>
</g>
<!-- Api::ProjectsController -->
<g id="node8" class="node"><title>Api::ProjectsController</title>
<path fill="none" stroke="black" d="M96,524C96,524 254,524 254,524 260,524 266,518 266,512 266,512 266,398 266,398 266,392 260,386 254,386 254,386 96,386 96,386 90,386 84,392 84,398 84,398 84,512 84,512 84,518 90,524 96,524"/>
<text text-anchor="middle" x="175" y="401.2" font-family="Times,serif" font-size="14.00">Api::ProjectsController</text>
<polyline fill="none" stroke="black" points="84,409 266,409 "/>
<text text-anchor="start" x="92" y="424.2" font-family="Times,serif" font-size="14.00">index</text>
<text text-anchor="start" x="92" y="439.2" font-family="Times,serif" font-size="14.00">show</text>
<polyline fill="none" stroke="black" points="84,447 266,447 "/>
<polyline fill="none" stroke="black" points="84,471 266,471 "/>
<text text-anchor="start" x="92" y="486.2" font-family="Times,serif" font-size="14.00">_layout</text>
<text text-anchor="start" x="92" y="501.2" font-family="Times,serif" font-size="14.00">project_params</text>
<text text-anchor="start" x="92" y="516.2" font-family="Times,serif" font-size="14.00">set_project</text>
</g>
<!-- Api::CookbooksController -->
<g id="node9" class="node"><title>Api::CookbooksController</title>
<path fill="none" stroke="black" d="M432,-168C432,-168 610,-168 610,-168 616,-168 622,-174 622,-180 622,-180 622,-324 622,-324 622,-330 616,-336 610,-336 610,-336 432,-336 432,-336 426,-336 420,-330 420,-324 420,-324 420,-180 420,-180 420,-174 426,-168 432,-168"/>
<text text-anchor="middle" x="521" y="-320.8" font-family="Times,serif" font-size="14.00">Api::CookbooksController</text>
<polyline fill="none" stroke="black" points="420,-313 622,-313 "/>
<text text-anchor="start" x="428" y="-297.8" font-family="Times,serif" font-size="14.00">create</text>
<text text-anchor="start" x="428" y="-282.8" font-family="Times,serif" font-size="14.00">index</text>
<text text-anchor="start" x="428" y="-267.8" font-family="Times,serif" font-size="14.00">show</text>
<polyline fill="none" stroke="black" points="420,-260 622,-260 "/>
<polyline fill="none" stroke="black" points="420,-236 622,-236 "/>
<text text-anchor="start" x="428" y="-220.8" font-family="Times,serif" font-size="14.00">_layout</text>
<text text-anchor="start" x="428" y="-205.8" font-family="Times,serif" font-size="14.00">cookbook_params</text>
<text text-anchor="start" x="428" y="-190.8" font-family="Times,serif" font-size="14.00">set_cookbook</text>
<text text-anchor="start" x="428" y="-175.8" font-family="Times,serif" font-size="14.00">set_project</text>
</g>
<!-- OrganizationsController -->
<g id="node10" class="node"><title>OrganizationsController</title>
<path fill="none" stroke="black" d="M201,-441.5C201,-441.5 367,-441.5 367,-441.5 373,-441.5 379,-447.5 379,-453.5 379,-453.5 379,-582.5 379,-582.5 379,-588.5 373,-594.5 367,-594.5 367,-594.5 201,-594.5 201,-594.5 195,-594.5 189,-588.5 189,-582.5 189,-582.5 189,-453.5 189,-453.5 189,-447.5 195,-441.5 201,-441.5"/>
<text text-anchor="middle" x="284" y="-579.3" font-family="Times,serif" font-size="14.00">OrganizationsController</text>
<polyline fill="none" stroke="black" points="189,-571.5 379,-571.5 "/>
<text text-anchor="start" x="197" y="-556.3" font-family="Times,serif" font-size="14.00">create</text>
<text text-anchor="start" x="197" y="-541.3" font-family="Times,serif" font-size="14.00">index</text>
<text text-anchor="start" x="197" y="-526.3" font-family="Times,serif" font-size="14.00">show</text>
<polyline fill="none" stroke="black" points="189,-518.5 379,-518.5 "/>
<polyline fill="none" stroke="black" points="189,-494.5 379,-494.5 "/>
<text text-anchor="start" x="197" y="-479.3" font-family="Times,serif" font-size="14.00">_layout</text>
<text text-anchor="start" x="197" y="-464.3" font-family="Times,serif" font-size="14.00">organization_params</text>
<text text-anchor="start" x="197" y="-449.3" font-family="Times,serif" font-size="14.00">set_organization</text>
</g>
<!-- PullRequestsController -->
<g id="node11" class="node"><title>PullRequestsController</title>
<path fill="none" stroke="black" d="M201,-189.5C201,-189.5 361,-189.5 361,-189.5 367,-189.5 373,-195.5 373,-201.5 373,-201.5 373,-390.5 373,-390.5 373,-396.5 367,-402.5 361,-402.5 361,-402.5 201,-402.5 201,-402.5 195,-402.5 189,-396.5 189,-390.5 189,-390.5 189,-201.5 189,-201.5 189,-195.5 195,-189.5 201,-189.5"/>
<text text-anchor="middle" x="281" y="-387.3" font-family="Times,serif" font-size="14.00">PullRequestsController</text>
<polyline fill="none" stroke="black" points="189,-379.5 373,-379.5 "/>
<text text-anchor="start" x="197" y="-364.3" font-family="Times,serif" font-size="14.00">create</text>
<text text-anchor="start" x="197" y="-349.3" font-family="Times,serif" font-size="14.00">destroy</text>
<text text-anchor="start" x="197" y="-334.3" font-family="Times,serif" font-size="14.00">edit</text>
<text text-anchor="start" x="197" y="-319.3" font-family="Times,serif" font-size="14.00">index</text>
<text text-anchor="start" x="197" y="-304.3" font-family="Times,serif" font-size="14.00">new</text>
<text text-anchor="start" x="197" y="-289.3" font-family="Times,serif" font-size="14.00">show</text>
<text text-anchor="start" x="197" y="-274.3" font-family="Times,serif" font-size="14.00">update</text>
<polyline fill="none" stroke="black" points="189,-266.5 373,-266.5 "/>
<polyline fill="none" stroke="black" points="189,-242.5 373,-242.5 "/>
<text text-anchor="start" x="197" y="-227.3" font-family="Times,serif" font-size="14.00">_layout</text>
<text text-anchor="start" x="197" y="-212.3" font-family="Times,serif" font-size="14.00">pull_request_params</text>
<text text-anchor="start" x="197" y="-197.3" font-family="Times,serif" font-size="14.00">set_pull_request</text>
</g>
<!-- ProjectConfigsController -->
<g id="node12" class="node"><title>ProjectConfigsController</title>
<path fill="none" stroke="black" d="M12,-190C12,-190 146,-190 146,-190 152,-190 158,-196 158,-202 158,-202 158,-406 158,-406 158,-412 152,-418 146,-418 146,-418 12,-418 12,-418 6,-418 0,-412 0,-406 0,-406 0,-202 0,-202 0,-196 6,-190 12,-190"/>
<text text-anchor="middle" x="79" y="-402.8" font-family="Times,serif" font-size="14.00">ProjectConfigsController</text>
<polyline fill="none" stroke="black" points="0,-395 158,-395 "/>
<text text-anchor="start" x="8" y="-379.8" font-family="Times,serif" font-size="14.00">create</text>
<text text-anchor="start" x="8" y="-364.8" font-family="Times,serif" font-size="14.00">destroy</text>
<text text-anchor="start" x="8" y="-349.8" font-family="Times,serif" font-size="14.00">edit</text>
<text text-anchor="start" x="8" y="-334.8" font-family="Times,serif" font-size="14.00">index</text>
<text text-anchor="start" x="8" y="-319.8" font-family="Times,serif" font-size="14.00">new</text>
<text text-anchor="start" x="8" y="-304.8" font-family="Times,serif" font-size="14.00">show</text>
<text text-anchor="start" x="8" y="-289.8" font-family="Times,serif" font-size="14.00">update</text>
<polyline fill="none" stroke="black" points="0,-282 158,-282 "/>
<polyline fill="none" stroke="black" points="0,-258 158,-258 "/>
<text text-anchor="start" x="8" y="-242.8" font-family="Times,serif" font-size="14.00">_layout</text>
<text text-anchor="start" x="8" y="-227.8" font-family="Times,serif" font-size="14.00">project_config_params</text>
<text text-anchor="start" x="8" y="-212.8" font-family="Times,serif" font-size="14.00">set_project_config</text>
<text text-anchor="start" x="8" y="-197.8" font-family="Times,serif" font-size="14.00">set_project</text>
</g>
<!-- ChangesetsController -->
<g id="node13" class="node"><title>ChangesetsController</title>
<path fill="none" stroke="black" d="M-93,146C-93,146 57,146 57,146 63,146 69,140 69,134 69,134 69,-130 69,-130 69,-136 63,-142 57,-142 57,-142 -93,-142 -93,-142 -99,-142 -105,-136 -105,-130 -105,-130 -105,134 -105,134 -105,140 -99,146 -93,146"/>
<text text-anchor="middle" x="-18" y="-126.8" font-family="Times,serif" font-size="14.00">ChangesetsController</text>
<polyline fill="none" stroke="black" points="-105,-119 69,-119 "/>
<text text-anchor="start" x="-97" y="-103.8" font-family="Times,serif" font-size="14.00">build_cookbook</text>
<text text-anchor="start" x="-97" y="-88.8" font-family="Times,serif" font-size="14.00">build_stage</text>
<text text-anchor="start" x="-97" y="-73.8" font-family="Times,serif" font-size="14.00">check_pr</text>
<text text-anchor="start" x="-97" y="-58.8" font-family="Times,serif" font-size="14.00">console</text>
<text text-anchor="start" x="-97" y="-43.8" font-family="Times,serif" font-size="14.00">create</text>
<text text-anchor="start" x="-97" y="-28.8" font-family="Times,serif" font-size="14.00">destroy</text>
<text text-anchor="start" x="-97" y="-13.8" font-family="Times,serif" font-size="14.00">edit</text>
<text text-anchor="start" x="-97" y="1.2" font-family="Times,serif" font-size="14.00">index</text>
<text text-anchor="start" x="-97" y="16.2" font-family="Times,serif" font-size="14.00">new</text>
<text text-anchor="start" x="-97" y="31.2" font-family="Times,serif" font-size="14.00">show</text>
<text text-anchor="start" x="-97" y="46.2" font-family="Times,serif" font-size="14.00">update</text>
<polyline fill="none" stroke="black" points="-105,54 69,54 "/>
<polyline fill="none" stroke="black" points="-105,78 69,78 "/>
<text text-anchor="start" x="-97" y="93.2" font-family="Times,serif" font-size="14.00">_layout</text>
<text text-anchor="start" x="-97" y="108.2" font-family="Times,serif" font-size="14.00">changeset_params</text>
<text text-anchor="start" x="-97" y="123.2" font-family="Times,serif" font-size="14.00">set_changeset</text>
<text text-anchor="start" x="-97" y="138.2" font-family="Times,serif" font-size="14.00">set_project</text>
</g>
<!-- Admin::UsersController -->
<g id="node14" class="node"><title>Admin::UsersController</title>
<path fill="none" stroke="black" d="M-219.5,-231.5C-219.5,-231.5 -56.5,-231.5 -56.5,-231.5 -50.5,-231.5 -44.5,-237.5 -44.5,-243.5 -44.5,-243.5 -44.5,-432.5 -44.5,-432.5 -44.5,-438.5 -50.5,-444.5 -56.5,-444.5 -56.5,-444.5 -219.5,-444.5 -219.5,-444.5 -225.5,-444.5 -231.5,-438.5 -231.5,-432.5 -231.5,-432.5 -231.5,-243.5 -231.5,-243.5 -231.5,-237.5 -225.5,-231.5 -219.5,-231.5"/>
<text text-anchor="middle" x="-138" y="-429.3" font-family="Times,serif" font-size="14.00">Admin::UsersController</text>
<polyline fill="none" stroke="black" points="-231.5,-421.5 -44.5,-421.5 "/>
<text text-anchor="start" x="-223.5" y="-406.3" font-family="Times,serif" font-size="14.00">create</text>
<text text-anchor="start" x="-223.5" y="-391.3" font-family="Times,serif" font-size="14.00">destroy</text>
<text text-anchor="start" x="-223.5" y="-376.3" font-family="Times,serif" font-size="14.00">edit</text>
<text text-anchor="start" x="-223.5" y="-361.3" font-family="Times,serif" font-size="14.00">index</text>
<text text-anchor="start" x="-223.5" y="-346.3" font-family="Times,serif" font-size="14.00">new</text>
<text text-anchor="start" x="-223.5" y="-331.3" font-family="Times,serif" font-size="14.00">show</text>
<text text-anchor="start" x="-223.5" y="-316.3" font-family="Times,serif" font-size="14.00">update</text>
<polyline fill="none" stroke="black" points="-231.5,-308.5 -44.5,-308.5 "/>
<polyline fill="none" stroke="black" points="-231.5,-284.5 -44.5,-284.5 "/>
<text text-anchor="start" x="-223.5" y="-269.3" font-family="Times,serif" font-size="14.00">_layout</text>
<text text-anchor="start" x="-223.5" y="-254.3" font-family="Times,serif" font-size="14.00">set_user</text>
<text text-anchor="start" x="-223.5" y="-239.3" font-family="Times,serif" font-size="14.00">user_params</text>
</g>
<!-- Admin::ApplicationController -->
<g id="node15" class="node"><title>Admin::ApplicationController</title>
<path fill="none" stroke="black" d="M432.5,-378.5C432.5,-378.5 661.5,-378.5 661.5,-378.5 667.5,-378.5 673.5,-384.5 673.5,-390.5 673.5,-390.5 673.5,-489.5 673.5,-489.5 673.5,-495.5 667.5,-501.5 661.5,-501.5 661.5,-501.5 432.5,-501.5 432.5,-501.5 426.5,-501.5 420.5,-495.5 420.5,-489.5 420.5,-489.5 420.5,-390.5 420.5,-390.5 420.5,-384.5 426.5,-378.5 432.5,-378.5"/>
<text text-anchor="middle" x="547" y="-486.3" font-family="Times,serif" font-size="14.00">Admin::ApplicationController</text>
<polyline fill="none" stroke="black" points="420.5,-478.5 673.5,-478.5 "/>
<text text-anchor="start" x="428.5" y="-463.3" font-family="Times,serif" font-size="14.00">configure_permitted_parameters</text>
<text text-anchor="start" x="428.5" y="-448.3" font-family="Times,serif" font-size="14.00">index</text>
<polyline fill="none" stroke="black" points="420.5,-440.5 673.5,-440.5 "/>
<polyline fill="none" stroke="black" points="420.5,-416.5 673.5,-416.5 "/>
<text text-anchor="start" x="428.5" y="-401.3" font-family="Times,serif" font-size="14.00">_layout</text>
<text text-anchor="start" x="428.5" y="-386.3" font-family="Times,serif" font-size="14.00">layout_by_resource</text>
</g>
<!-- ProjectsController -->
<g id="node16" class="node"><title>ProjectsController</title>
<path fill="none" stroke="black" d="M-93.5,398.5C-93.5,398.5 31.5,398.5 31.5,398.5 37.5,398.5 43.5,392.5 43.5,386.5 43.5,386.5 43.5,197.5 43.5,197.5 43.5,191.5 37.5,185.5 31.5,185.5 31.5,185.5 -93.5,185.5 -93.5,185.5 -99.5,185.5 -105.5,191.5 -105.5,197.5 -105.5,197.5 -105.5,386.5 -105.5,386.5 -105.5,392.5 -99.5,398.5 -93.5,398.5"/>
<text text-anchor="middle" x="-31" y="200.7" font-family="Times,serif" font-size="14.00">ProjectsController</text>
<polyline fill="none" stroke="black" points="-105.5,208.5 43.5,208.5 "/>
<text text-anchor="start" x="-97.5" y="223.7" font-family="Times,serif" font-size="14.00">create</text>
<text text-anchor="start" x="-97.5" y="238.7" font-family="Times,serif" font-size="14.00">destroy</text>
<text text-anchor="start" x="-97.5" y="253.7" font-family="Times,serif" font-size="14.00">edit</text>
<text text-anchor="start" x="-97.5" y="268.7" font-family="Times,serif" font-size="14.00">index</text>
<text text-anchor="start" x="-97.5" y="283.7" font-family="Times,serif" font-size="14.00">new</text>
<text text-anchor="start" x="-97.5" y="298.7" font-family="Times,serif" font-size="14.00">show</text>
<text text-anchor="start" x="-97.5" y="313.7" font-family="Times,serif" font-size="14.00">update</text>
<polyline fill="none" stroke="black" points="-105.5,321.5 43.5,321.5 "/>
<polyline fill="none" stroke="black" points="-105.5,345.5 43.5,345.5 "/>
<text text-anchor="start" x="-97.5" y="360.7" font-family="Times,serif" font-size="14.00">_layout</text>
<text text-anchor="start" x="-97.5" y="375.7" font-family="Times,serif" font-size="14.00">project_params</text>
<text text-anchor="start" x="-97.5" y="390.7" font-family="Times,serif" font-size="14.00">set_project</text>
</g>
<!-- ErrorReportsController -->
<g id="node17" class="node"><title>ErrorReportsController</title>
<path fill="none" stroke="black" d="M-30.5,-483.5C-30.5,-483.5 130.5,-483.5 130.5,-483.5 136.5,-483.5 142.5,-489.5 142.5,-495.5 142.5,-495.5 142.5,-624.5 142.5,-624.5 142.5,-630.5 136.5,-636.5 130.5,-636.5 130.5,-636.5 -30.5,-636.5 -30.5,-636.5 -36.5,-636.5 -42.5,-630.5 -42.5,-624.5 -42.5,-624.5 -42.5,-495.5 -42.5,-495.5 -42.5,-489.5 -36.5,-483.5 -30.5,-483.5"/>
<text text-anchor="middle" x="50" y="-621.3" font-family="Times,serif" font-size="14.00">ErrorReportsController</text>
<polyline fill="none" stroke="black" points="-42.5,-613.5 142.5,-613.5 "/>
<text text-anchor="start" x="-34.5" y="-598.3" font-family="Times,serif" font-size="14.00">create</text>
<text text-anchor="start" x="-34.5" y="-583.3" font-family="Times,serif" font-size="14.00">index</text>
<text text-anchor="start" x="-34.5" y="-568.3" font-family="Times,serif" font-size="14.00">show</text>
<polyline fill="none" stroke="black" points="-42.5,-560.5 142.5,-560.5 "/>
<polyline fill="none" stroke="black" points="-42.5,-536.5 142.5,-536.5 "/>
<text text-anchor="start" x="-34.5" y="-521.3" font-family="Times,serif" font-size="14.00">_layout</text>
<text text-anchor="start" x="-34.5" y="-506.3" font-family="Times,serif" font-size="14.00">error_report_params</text>
<text text-anchor="start" x="-34.5" y="-491.3" font-family="Times,serif" font-size="14.00">set_error_report</text>
</g>
<!-- CookbooksController -->
<g id="node18" class="node"><title>CookbooksController</title>
<path fill="none" stroke="black" d="M-303.5,41C-303.5,41 -158.5,41 -158.5,41 -152.5,41 -146.5,35 -146.5,29 -146.5,29 -146.5,-175 -146.5,-175 -146.5,-181 -152.5,-187 -158.5,-187 -158.5,-187 -303.5,-187 -303.5,-187 -309.5,-187 -315.5,-181 -315.5,-175 -315.5,-175 -315.5,29 -315.5,29 -315.5,35 -309.5,41 -303.5,41"/>
<text text-anchor="middle" x="-231" y="-171.8" font-family="Times,serif" font-size="14.00">CookbooksController</text>
<polyline fill="none" stroke="black" points="-315.5,-164 -146.5,-164 "/>
<text text-anchor="start" x="-307.5" y="-148.8" font-family="Times,serif" font-size="14.00">create</text>
<text text-anchor="start" x="-307.5" y="-133.8" font-family="Times,serif" font-size="14.00">destroy</text>
<text text-anchor="start" x="-307.5" y="-118.8" font-family="Times,serif" font-size="14.00">edit</text>
<text text-anchor="start" x="-307.5" y="-103.8" font-family="Times,serif" font-size="14.00">index</text>
<text text-anchor="start" x="-307.5" y="-88.8" font-family="Times,serif" font-size="14.00">new</text>
<text text-anchor="start" x="-307.5" y="-73.8" font-family="Times,serif" font-size="14.00">show</text>
<text text-anchor="start" x="-307.5" y="-58.8" font-family="Times,serif" font-size="14.00">update</text>
<polyline fill="none" stroke="black" points="-315.5,-51 -146.5,-51 "/>
<polyline fill="none" stroke="black" points="-315.5,-27 -146.5,-27 "/>
<text text-anchor="start" x="-307.5" y="-11.8" font-family="Times,serif" font-size="14.00">_layout</text>
<text text-anchor="start" x="-307.5" y="3.2" font-family="Times,serif" font-size="14.00">cookbook_params</text>
<text text-anchor="start" x="-307.5" y="18.2" font-family="Times,serif" font-size="14.00">set_cookbook</text>
<text text-anchor="start" x="-307.5" y="33.2" font-family="Times,serif" font-size="14.00">set_project</text>
</g>
<!-- ApplicationController -->
<g id="node19" class="node"><title>ApplicationController</title>
<path fill="none" stroke="black" d="M-429,-273.5C-429,-273.5 -281,-273.5 -281,-273.5 -275,-273.5 -269,-279.5 -269,-285.5 -269,-285.5 -269,-354.5 -269,-354.5 -269,-360.5 -275,-366.5 -281,-366.5 -281,-366.5 -429,-366.5 -429,-366.5 -435,-366.5 -441,-360.5 -441,-354.5 -441,-354.5 -441,-285.5 -441,-285.5 -441,-279.5 -435,-273.5 -429,-273.5"/>
<text text-anchor="middle" x="-355" y="-351.3" font-family="Times,serif" font-size="14.00">ApplicationController</text>
<polyline fill="none" stroke="black" points="-441,-343.5 -269,-343.5 "/>
<text text-anchor="start" x="-433" y="-328.3" font-family="Times,serif" font-size="14.00">home</text>
<polyline fill="none" stroke="black" points="-441,-320.5 -269,-320.5 "/>
<polyline fill="none" stroke="black" points="-441,-296.5 -269,-296.5 "/>
<text text-anchor="start" x="-433" y="-281.3" font-family="Times,serif" font-size="14.00">_layout</text>
</g>
<!-- StagesController -->
<g id="node20" class="node"><title>StagesController</title>
<path fill="none" stroke="black" d="M-387,-400C-387,-400 -273,-400 -273,-400 -267,-400 -261,-406 -261,-412 -261,-412 -261,-616 -261,-616 -261,-622 -267,-628 -273,-628 -273,-628 -387,-628 -387,-628 -393,-628 -399,-622 -399,-616 -399,-616 -399,-412 -399,-412 -399,-406 -393,-400 -387,-400"/>
<text text-anchor="middle" x="-330" y="-612.8" font-family="Times,serif" font-size="14.00">StagesController</text>
<polyline fill="none" stroke="black" points="-399,-605 -261,-605 "/>
<text text-anchor="start" x="-391" y="-589.8" font-family="Times,serif" font-size="14.00">create</text>
<text text-anchor="start" x="-391" y="-574.8" font-family="Times,serif" font-size="14.00">destroy</text>
<text text-anchor="start" x="-391" y="-559.8" font-family="Times,serif" font-size="14.00">edit</text>
<text text-anchor="start" x="-391" y="-544.8" font-family="Times,serif" font-size="14.00">index</text>
<text text-anchor="start" x="-391" y="-529.8" font-family="Times,serif" font-size="14.00">new</text>
<text text-anchor="start" x="-391" y="-514.8" font-family="Times,serif" font-size="14.00">show</text>
<text text-anchor="start" x="-391" y="-499.8" font-family="Times,serif" font-size="14.00">update</text>
<polyline fill="none" stroke="black" points="-399,-492 -261,-492 "/>
<polyline fill="none" stroke="black" points="-399,-468 -261,-468 "/>
<text text-anchor="start" x="-391" y="-452.8" font-family="Times,serif" font-size="14.00">_layout</text>
<text text-anchor="start" x="-391" y="-437.8" font-family="Times,serif" font-size="14.00">set_project</text>
<text text-anchor="start" x="-391" y="-422.8" font-family="Times,serif" font-size="14.00">set_stage</text>
<text text-anchor="start" x="-391" y="-407.8" font-family="Times,serif" font-size="14.00">stage_params</text>
</g>
<!-- NodesController -->
<g id="node21" class="node"><title>NodesController</title>
<path fill="none" stroke="black" d="M-450,252C-450,252 -338,252 -338,252 -332,252 -326,246 -326,240 -326,240 -326,96 -326,96 -326,90 -332,84 -338,84 -338,84 -450,84 -450,84 -456,84 -462,90 -462,96 -462,96 -462,240 -462,240 -462,246 -456,252 -450,252"/>
<text text-anchor="middle" x="-394" y="99.2" font-family="Times,serif" font-size="14.00">NodesController</text>
<polyline fill="none" stroke="black" points="-462,107 -326,107 "/>
<text text-anchor="start" x="-454" y="122.2" font-family="Times,serif" font-size="14.00">create</text>
<text text-anchor="start" x="-454" y="137.2" font-family="Times,serif" font-size="14.00">index</text>
<text text-anchor="start" x="-454" y="152.2" font-family="Times,serif" font-size="14.00">new</text>
<text text-anchor="start" x="-454" y="167.2" font-family="Times,serif" font-size="14.00">show</text>
<polyline fill="none" stroke="black" points="-462,175 -326,175 "/>
<polyline fill="none" stroke="black" points="-462,199 -326,199 "/>
<text text-anchor="start" x="-454" y="214.2" font-family="Times,serif" font-size="14.00">_layout</text>
<text text-anchor="start" x="-454" y="229.2" font-family="Times,serif" font-size="14.00">node_params</text>
<text text-anchor="start" x="-454" y="244.2" font-family="Times,serif" font-size="14.00">set_node</text>
</g>
</g>
</svg>
