<?xml version="1.0" encoding="UTF-8" standalone="no"?>
<!DOCTYPE svg PUBLIC "-//W3C//DTD SVG 1.1//EN"
 "http://www.w3.org/Graphics/SVG/1.1/DTD/svg11.dtd">
<!-- Generated by graphviz version 2.38.0 (20140413.2041)
 -->
<!-- Title: models_diagram Pages: 1 -->
<svg width="1663pt" height="1024pt"
 viewBox="0.00 0.00 1662.50 1024.00" xmlns="http://www.w3.org/2000/svg" xmlns:xlink="http://www.w3.org/1999/xlink">
<g id="graph0" class="graph" transform="scale(1 1) rotate(0) translate(4 1020)">
<title>models_diagram</title>
<polygon fill="none" stroke="none" points="-4,4 -4,-1020 1658.5,-1020 1658.5,4 -4,4"/>
<!-- _diagram_info -->
<g id="node1" class="node"><title>_diagram_info</title>
<text text-anchor="start" x="8" y="-874.6" font-family="Times,serif" font-size="13.00">Models diagram</text>
<text text-anchor="start" x="8" y="-860.6" font-family="Times,serif" font-size="13.00">Date: May 30 2017 &#45; 10:24</text>
<text text-anchor="start" x="8" y="-846.6" font-family="Times,serif" font-size="13.00">Migration version: 20170527171347</text>
<text text-anchor="start" x="8" y="-832.6" font-family="Times,serif" font-size="13.00">Generated by RailRoady 1.5.2</text>
<text text-anchor="start" x="8" y="-818.6" font-family="Times,serif" font-size="13.00">http://railroady.prestonlee.com</text>
</g>
<!-- CookbookBuild -->
<g id="node2" class="node"><title>CookbookBuild</title>
<path fill="none" stroke="black" d="M569,-218.5C569,-218.5 772,-218.5 772,-218.5 778,-218.5 784,-224.5 784,-230.5 784,-230.5 784,-447.5 784,-447.5 784,-453.5 778,-459.5 772,-459.5 772,-459.5 569,-459.5 569,-459.5 563,-459.5 557,-453.5 557,-447.5 557,-447.5 557,-230.5 557,-230.5 557,-224.5 563,-218.5 569,-218.5"/>
<text text-anchor="middle" x="670.5" y="-444.3" font-family="Times,serif" font-size="14.00">CookbookBuild</text>
<polyline fill="none" stroke="black" points="557,-436.5 784,-436.5 "/>
<text text-anchor="start" x="565" y="-421.3" font-family="Times,serif" font-size="14.00">id :int(11)</text>
<text text-anchor="start" x="565" y="-406.3" font-family="Times,serif" font-size="14.00">cookbook_id :int(11)</text>
<text text-anchor="start" x="565" y="-391.3" font-family="Times,serif" font-size="14.00">changeset_id :int(11)</text>
<text text-anchor="start" x="565" y="-376.3" font-family="Times,serif" font-size="14.00">build_job_id :int(11)</text>
<text text-anchor="start" x="565" y="-361.3" font-family="Times,serif" font-size="14.00">foodcritic_status :int(11)</text>
<text text-anchor="start" x="565" y="-346.3" font-family="Times,serif" font-size="14.00">cookstyle_status :int(11)</text>
<text text-anchor="start" x="565" y="-331.3" font-family="Times,serif" font-size="14.00">rspec_status :int(11)</text>
<text text-anchor="start" x="565" y="-316.3" font-family="Times,serif" font-size="14.00">kitchen_status :int(11)</text>
<text text-anchor="start" x="565" y="-301.3" font-family="Times,serif" font-size="14.00">approve_status :int(11)</text>
<text text-anchor="start" x="565" y="-286.3" font-family="Times,serif" font-size="14.00">commit_sha :varchar(255)</text>
<text text-anchor="start" x="565" y="-271.3" font-family="Times,serif" font-size="14.00">remote_branch :varchar(255)</text>
<text text-anchor="start" x="565" y="-256.3" font-family="Times,serif" font-size="14.00">created_at :datetime</text>
<text text-anchor="start" x="565" y="-241.3" font-family="Times,serif" font-size="14.00">updated_at :datetime</text>
<text text-anchor="start" x="565" y="-226.3" font-family="Times,serif" font-size="14.00">pull_request_id :int(11)</text>
</g>
<!-- BuildJob -->
<g id="node5" class="node"><title>BuildJob</title>
<path fill="none" stroke="black" d="M318.5,-8C318.5,-8 464.5,-8 464.5,-8 470.5,-8 476.5,-14 476.5,-20 476.5,-20 476.5,-162 476.5,-162 476.5,-168 470.5,-174 464.5,-174 464.5,-174 318.5,-174 318.5,-174 312.5,-174 306.5,-168 306.5,-162 306.5,-162 306.5,-20 306.5,-20 306.5,-14 312.5,-8 318.5,-8"/>
<text text-anchor="middle" x="391.5" y="-158.8" font-family="Times,serif" font-size="14.00">BuildJob</text>
<polyline fill="none" stroke="black" points="306.5,-151 476.5,-151 "/>
<text text-anchor="start" x="314.5" y="-135.8" font-family="Times,serif" font-size="14.00">id :int(11)</text>
<text text-anchor="start" x="314.5" y="-120.8" font-family="Times,serif" font-size="14.00">name :varchar(255)</text>
<text text-anchor="start" x="314.5" y="-105.8" font-family="Times,serif" font-size="14.00">url :varchar(255)</text>
<text text-anchor="start" x="314.5" y="-90.8" font-family="Times,serif" font-size="14.00">status :int(11)</text>
<text text-anchor="start" x="314.5" y="-75.8" font-family="Times,serif" font-size="14.00">duration :int(11)</text>
<text text-anchor="start" x="314.5" y="-60.8" font-family="Times,serif" font-size="14.00">created_at :datetime</text>
<text text-anchor="start" x="314.5" y="-45.8" font-family="Times,serif" font-size="14.00">updated_at :datetime</text>
<text text-anchor="start" x="314.5" y="-30.8" font-family="Times,serif" font-size="14.00">started_at :datetime</text>
<text text-anchor="start" x="314.5" y="-15.8" font-family="Times,serif" font-size="14.00">stages :text</text>
</g>
<!-- CookbookBuild&#45;&gt;BuildJob -->
<g id="edge1" class="edge"><title>CookbookBuild&#45;&gt;BuildJob</title>
<path fill="none" stroke="#bf1355" d="M550.729,-220.879C549.65,-219.913 548.573,-218.953 547.5,-218 527.126,-199.904 504.626,-181.095 483.207,-163.7"/>
<ellipse fill="none" stroke="#bf1355" cx="553.964" cy="-223.795" rx="4.00002" ry="4.00002"/>
<ellipse fill="#bf1355" stroke="#bf1355" cx="480.007" cy="-161.109" rx="4.00002" ry="4.00002"/>
</g>
<!-- PullRequest -->
<g id="node8" class="node"><title>PullRequest</title>
<path fill="none" stroke="black" d="M579.5,-15.5C579.5,-15.5 761.5,-15.5 761.5,-15.5 767.5,-15.5 773.5,-21.5 773.5,-27.5 773.5,-27.5 773.5,-154.5 773.5,-154.5 773.5,-160.5 767.5,-166.5 761.5,-166.5 761.5,-166.5 579.5,-166.5 579.5,-166.5 573.5,-166.5 567.5,-160.5 567.5,-154.5 567.5,-154.5 567.5,-27.5 567.5,-27.5 567.5,-21.5 573.5,-15.5 579.5,-15.5"/>
<text text-anchor="middle" x="670.5" y="-151.3" font-family="Times,serif" font-size="14.00">PullRequest</text>
<polyline fill="none" stroke="black" points="567.5,-143.5 773.5,-143.5 "/>
<text text-anchor="start" x="575.5" y="-128.3" font-family="Times,serif" font-size="14.00">id :int(11)</text>
<text text-anchor="start" x="575.5" y="-113.3" font-family="Times,serif" font-size="14.00">url :varchar(255)</text>
<text text-anchor="start" x="575.5" y="-98.3" font-family="Times,serif" font-size="14.00">short :varchar(255)</text>
<text text-anchor="start" x="575.5" y="-83.3" font-family="Times,serif" font-size="14.00">status :int(11)</text>
<text text-anchor="start" x="575.5" y="-68.3" font-family="Times,serif" font-size="14.00">message :text</text>
<text text-anchor="start" x="575.5" y="-53.3" font-family="Times,serif" font-size="14.00">cookbook_build_id :int(11)</text>
<text text-anchor="start" x="575.5" y="-38.3" font-family="Times,serif" font-size="14.00">created_at :datetime</text>
<text text-anchor="start" x="575.5" y="-23.3" font-family="Times,serif" font-size="14.00">updated_at :datetime</text>
</g>
<!-- CookbookBuild&#45;&gt;PullRequest -->
<g id="edge2" class="edge"><title>CookbookBuild&#45;&gt;PullRequest</title>
<path fill="none" stroke="#d697df" d="M670.5,-209.994C670.5,-198.053 670.5,-186.174 670.5,-174.81"/>
<ellipse fill="none" stroke="#d697df" cx="670.5" cy="-214.243" rx="4" ry="4"/>
<ellipse fill="#d697df" stroke="#d697df" cx="670.5" cy="-170.632" rx="4" ry="4"/>
</g>
<!-- ProjectConfig -->
<g id="node3" class="node"><title>ProjectConfig</title>
<path fill="none" stroke="black" d="M863.5,-511.5C863.5,-511.5 1009.5,-511.5 1009.5,-511.5 1015.5,-511.5 1021.5,-517.5 1021.5,-523.5 1021.5,-523.5 1021.5,-620.5 1021.5,-620.5 1021.5,-626.5 1015.5,-632.5 1009.5,-632.5 1009.5,-632.5 863.5,-632.5 863.5,-632.5 857.5,-632.5 851.5,-626.5 851.5,-620.5 851.5,-620.5 851.5,-523.5 851.5,-523.5 851.5,-517.5 857.5,-511.5 863.5,-511.5"/>
<text text-anchor="middle" x="936.5" y="-617.3" font-family="Times,serif" font-size="14.00">ProjectConfig</text>
<polyline fill="none" stroke="black" points="851.5,-609.5 1021.5,-609.5 "/>
<text text-anchor="start" x="859.5" y="-594.3" font-family="Times,serif" font-size="14.00">id :int(11)</text>
<text text-anchor="start" x="859.5" y="-579.3" font-family="Times,serif" font-size="14.00">name :varchar(255)</text>
<text text-anchor="start" x="859.5" y="-564.3" font-family="Times,serif" font-size="14.00">content :text</text>
<text text-anchor="start" x="859.5" y="-549.3" font-family="Times,serif" font-size="14.00">project_id :int(11)</text>
<text text-anchor="start" x="859.5" y="-534.3" font-family="Times,serif" font-size="14.00">created_at :datetime</text>
<text text-anchor="start" x="859.5" y="-519.3" font-family="Times,serif" font-size="14.00">updated_at :datetime</text>
</g>
<!-- ApplicationRecord -->
<g id="node4" class="node"><title>ApplicationRecord</title>
<ellipse fill="none" stroke="black" cx="910.5" cy="-850" rx="96.6831" ry="18"/>
<text text-anchor="middle" x="910.5" y="-846.3" font-family="Times,serif" font-size="14.00">ApplicationRecord</text>
</g>
<!-- Organization -->
<g id="node6" class="node"><title>Organization</title>
<path fill="none" stroke="black" d="M1058.5,-804.5C1058.5,-804.5 1204.5,-804.5 1204.5,-804.5 1210.5,-804.5 1216.5,-810.5 1216.5,-816.5 1216.5,-816.5 1216.5,-883.5 1216.5,-883.5 1216.5,-889.5 1210.5,-895.5 1204.5,-895.5 1204.5,-895.5 1058.5,-895.5 1058.5,-895.5 1052.5,-895.5 1046.5,-889.5 1046.5,-883.5 1046.5,-883.5 1046.5,-816.5 1046.5,-816.5 1046.5,-810.5 1052.5,-804.5 1058.5,-804.5"/>
<text text-anchor="middle" x="1131.5" y="-880.3" font-family="Times,serif" font-size="14.00">Organization</text>
<polyline fill="none" stroke="black" points="1046.5,-872.5 1216.5,-872.5 "/>
<text text-anchor="start" x="1054.5" y="-857.3" font-family="Times,serif" font-size="14.00">id :int(11)</text>
<text text-anchor="start" x="1054.5" y="-842.3" font-family="Times,serif" font-size="14.00">name :varchar(255)</text>
<text text-anchor="start" x="1054.5" y="-827.3" font-family="Times,serif" font-size="14.00">created_at :datetime</text>
<text text-anchor="start" x="1054.5" y="-812.3" font-family="Times,serif" font-size="14.00">updated_at :datetime</text>
</g>
<!-- Environment -->
<g id="node14" class="node"><title>Environment</title>
<path fill="none" stroke="black" d="M1051.5,-519C1051.5,-519 1211.5,-519 1211.5,-519 1217.5,-519 1223.5,-525 1223.5,-531 1223.5,-531 1223.5,-613 1223.5,-613 1223.5,-619 1217.5,-625 1211.5,-625 1211.5,-625 1051.5,-625 1051.5,-625 1045.5,-625 1039.5,-619 1039.5,-613 1039.5,-613 1039.5,-531 1039.5,-531 1039.5,-525 1045.5,-519 1051.5,-519"/>
<text text-anchor="middle" x="1131.5" y="-609.8" font-family="Times,serif" font-size="14.00">Environment</text>
<polyline fill="none" stroke="black" points="1039.5,-602 1223.5,-602 "/>
<text text-anchor="start" x="1047.5" y="-586.8" font-family="Times,serif" font-size="14.00">id :int(11)</text>
<text text-anchor="start" x="1047.5" y="-571.8" font-family="Times,serif" font-size="14.00">name :varchar(255)</text>
<text text-anchor="start" x="1047.5" y="-556.8" font-family="Times,serif" font-size="14.00">organization_id :int(11)</text>
<text text-anchor="start" x="1047.5" y="-541.8" font-family="Times,serif" font-size="14.00">created_at :datetime</text>
<text text-anchor="start" x="1047.5" y="-526.8" font-family="Times,serif" font-size="14.00">updated_at :datetime</text>
</g>
<!-- Organization&#45;&gt;Environment -->
<g id="edge3" class="edge"><title>Organization&#45;&gt;Environment</title>
<path fill="none" stroke="#cbd101" d="M1131.5,-796.059C1131.5,-750.136 1131.5,-683.611 1131.5,-635.168"/>
<ellipse fill="none" stroke="#cbd101" cx="1131.5" cy="-800.349" rx="4" ry="4"/>
<polygon fill="#cbd101" stroke="#cbd101" points="1131.5,-635.119 1136,-625.119 1131.5,-630.119 1131.5,-625.119 1131.5,-625.119 1131.5,-625.119 1131.5,-630.119 1127,-625.119 1131.5,-635.119 1131.5,-635.119"/>
</g>
<!-- StageBuild -->
<g id="node7" class="node"><title>StageBuild</title>
<path fill="none" stroke="black" d="M287.5,-782C287.5,-782 433.5,-782 433.5,-782 439.5,-782 445.5,-788 445.5,-794 445.5,-794 445.5,-906 445.5,-906 445.5,-912 439.5,-918 433.5,-918 433.5,-918 287.5,-918 287.5,-918 281.5,-918 275.5,-912 275.5,-906 275.5,-906 275.5,-794 275.5,-794 275.5,-788 281.5,-782 287.5,-782"/>
<text text-anchor="middle" x="360.5" y="-902.8" font-family="Times,serif" font-size="14.00">StageBuild</text>
<polyline fill="none" stroke="black" points="275.5,-895 445.5,-895 "/>
<text text-anchor="start" x="283.5" y="-879.8" font-family="Times,serif" font-size="14.00">id :int(11)</text>
<text text-anchor="start" x="283.5" y="-864.8" font-family="Times,serif" font-size="14.00">stage_id :int(11)</text>
<text text-anchor="start" x="283.5" y="-849.8" font-family="Times,serif" font-size="14.00">changeset_id :int(11)</text>
<text text-anchor="start" x="283.5" y="-834.8" font-family="Times,serif" font-size="14.00">build_job_id :int(11)</text>
<text text-anchor="start" x="283.5" y="-819.8" font-family="Times,serif" font-size="14.00">status :int(11)</text>
<text text-anchor="start" x="283.5" y="-804.8" font-family="Times,serif" font-size="14.00">created_at :datetime</text>
<text text-anchor="start" x="283.5" y="-789.8" font-family="Times,serif" font-size="14.00">updated_at :datetime</text>
</g>
<!-- StageBuild&#45;&gt;BuildJob -->
<g id="edge6" class="edge"><title>StageBuild&#45;&gt;BuildJob</title>
<path fill="none" stroke="#b275b6" d="M316.199,-774.668C296.82,-737.911 276.296,-692.069 266.5,-648 229.933,-483.489 297.368,-291.746 346.594,-181.844"/>
<ellipse fill="none" stroke="#b275b6" cx="318.173" cy="-778.366" rx="4.00002" ry="4.00002"/>
<ellipse fill="#b275b6" stroke="#b275b6" cx="348.31" cy="-178.044" rx="4.00002" ry="4.00002"/>
</g>
<!-- Changeset -->
<g id="node9" class="node"><title>Changeset</title>
<path fill="none" stroke="black" d="M287.5,-496.5C287.5,-496.5 433.5,-496.5 433.5,-496.5 439.5,-496.5 445.5,-502.5 445.5,-508.5 445.5,-508.5 445.5,-635.5 445.5,-635.5 445.5,-641.5 439.5,-647.5 433.5,-647.5 433.5,-647.5 287.5,-647.5 287.5,-647.5 281.5,-647.5 275.5,-641.5 275.5,-635.5 275.5,-635.5 275.5,-508.5 275.5,-508.5 275.5,-502.5 281.5,-496.5 287.5,-496.5"/>
<text text-anchor="middle" x="360.5" y="-632.3" font-family="Times,serif" font-size="14.00">Changeset</text>
<polyline fill="none" stroke="black" points="275.5,-624.5 445.5,-624.5 "/>
<text text-anchor="start" x="283.5" y="-609.3" font-family="Times,serif" font-size="14.00">id :int(11)</text>
<text text-anchor="start" x="283.5" y="-594.3" font-family="Times,serif" font-size="14.00">key :varchar(255)</text>
<text text-anchor="start" x="283.5" y="-579.3" font-family="Times,serif" font-size="14.00">project_id :int(11)</text>
<text text-anchor="start" x="283.5" y="-564.3" font-family="Times,serif" font-size="14.00">author_id :int(11)</text>
<text text-anchor="start" x="283.5" y="-549.3" font-family="Times,serif" font-size="14.00">description :text</text>
<text text-anchor="start" x="283.5" y="-534.3" font-family="Times,serif" font-size="14.00">slug :varchar(255)</text>
<text text-anchor="start" x="283.5" y="-519.3" font-family="Times,serif" font-size="14.00">created_at :datetime</text>
<text text-anchor="start" x="283.5" y="-504.3" font-family="Times,serif" font-size="14.00">updated_at :datetime</text>
</g>
<!-- StageBuild&#45;&gt;Changeset -->
<g id="edge5" class="edge"><title>StageBuild&#45;&gt;Changeset</title>
<path fill="none" stroke="#968688" d="M354.41,-773.62C353.588,-737.234 353.534,-693.477 354.249,-656.126"/>
<ellipse fill="none" stroke="#968688" cx="354.514" cy="-777.837" rx="4" ry="4"/>
<ellipse fill="#968688" stroke="#968688" cx="354.34" cy="-651.767" rx="4" ry="4"/>
</g>
<!-- Stage -->
<g id="node18" class="node"><title>Stage</title>
<path fill="none" stroke="black" d="M475.5,-511.5C475.5,-511.5 621.5,-511.5 621.5,-511.5 627.5,-511.5 633.5,-517.5 633.5,-523.5 633.5,-523.5 633.5,-620.5 633.5,-620.5 633.5,-626.5 627.5,-632.5 621.5,-632.5 621.5,-632.5 475.5,-632.5 475.5,-632.5 469.5,-632.5 463.5,-626.5 463.5,-620.5 463.5,-620.5 463.5,-523.5 463.5,-523.5 463.5,-517.5 469.5,-511.5 475.5,-511.5"/>
<text text-anchor="middle" x="548.5" y="-617.3" font-family="Times,serif" font-size="14.00">Stage</text>
<polyline fill="none" stroke="black" points="463.5,-609.5 633.5,-609.5 "/>
<text text-anchor="start" x="471.5" y="-594.3" font-family="Times,serif" font-size="14.00">id :int(11)</text>
<text text-anchor="start" x="471.5" y="-579.3" font-family="Times,serif" font-size="14.00">name :varchar(255)</text>
<text text-anchor="start" x="471.5" y="-564.3" font-family="Times,serif" font-size="14.00">description :text</text>
<text text-anchor="start" x="471.5" y="-549.3" font-family="Times,serif" font-size="14.00">created_at :datetime</text>
<text text-anchor="start" x="471.5" y="-534.3" font-family="Times,serif" font-size="14.00">updated_at :datetime</text>
<text text-anchor="start" x="471.5" y="-519.3" font-family="Times,serif" font-size="14.00">project_id :int(11)</text>
</g>
<!-- StageBuild&#45;&gt;Stage -->
<g id="edge4" class="edge"><title>StageBuild&#45;&gt;Stage</title>
<path fill="none" stroke="#e93fd1" d="M405.216,-775.086C423.114,-746.301 444.26,-713.263 464.5,-684 474.693,-669.263 486.028,-653.752 496.988,-639.15"/>
<ellipse fill="none" stroke="#e93fd1" cx="403.084" cy="-778.524" rx="4.00002" ry="4.00002"/>
<ellipse fill="#e93fd1" stroke="#e93fd1" cx="499.584" cy="-635.706" rx="4.00002" ry="4.00002"/>
</g>
<!-- Changeset&#45;&gt;CookbookBuild -->
<g id="edge7" class="edge"><title>Changeset&#45;&gt;CookbookBuild</title>
<path fill="none" stroke="#abc56f" d="M452.539,-497.139C453.193,-496.755 453.847,-496.375 454.5,-496 492.933,-473.924 510.214,-483.962 547.5,-460 547.794,-459.811 548.088,-459.621 548.382,-459.431"/>
<ellipse fill="none" stroke="#abc56f" cx="448.953" cy="-499.321" rx="4.00002" ry="4.00002"/>
<polygon fill="#abc56f" stroke="#abc56f" points="548.58,-459.297 559.386,-457.426 552.723,-456.497 556.866,-453.698 556.866,-453.698 556.866,-453.698 552.723,-456.497 554.346,-449.969 548.58,-459.297 548.58,-459.297"/>
</g>
<!-- Changeset&#45;&gt;StageBuild -->
<g id="edge8" class="edge"><title>Changeset&#45;&gt;StageBuild</title>
<path fill="none" stroke="#d64f5c" d="M366.749,-655.985C367.453,-692.694 367.415,-735.614 366.634,-771.648"/>
<ellipse fill="none" stroke="#d64f5c" cx="366.66" cy="-651.767" rx="4" ry="4"/>
<polygon fill="#d64f5c" stroke="#d64f5c" points="366.629,-771.839 361.889,-781.727 366.508,-776.837 366.388,-781.836 366.388,-781.836 366.388,-781.836 366.508,-776.837 370.886,-781.944 366.629,-771.839 366.629,-771.839"/>
</g>
<!-- Project -->
<g id="node10" class="node"><title>Project</title>
<path fill="none" stroke="black" d="M486,-684.5C486,-684.5 773,-684.5 773,-684.5 779,-684.5 785,-690.5 785,-696.5 785,-696.5 785,-1003.5 785,-1003.5 785,-1009.5 779,-1015.5 773,-1015.5 773,-1015.5 486,-1015.5 486,-1015.5 480,-1015.5 474,-1009.5 474,-1003.5 474,-1003.5 474,-696.5 474,-696.5 474,-690.5 480,-684.5 486,-684.5"/>
<text text-anchor="middle" x="629.5" y="-1000.3" font-family="Times,serif" font-size="14.00">Project</text>
<polyline fill="none" stroke="black" points="474,-992.5 785,-992.5 "/>
<text text-anchor="start" x="482" y="-977.3" font-family="Times,serif" font-size="14.00">id :int(11)</text>
<text text-anchor="start" x="482" y="-962.3" font-family="Times,serif" font-size="14.00">key :varchar(255)</text>
<text text-anchor="start" x="482" y="-947.3" font-family="Times,serif" font-size="14.00">jenkins_host :varchar(255)</text>
<text text-anchor="start" x="482" y="-932.3" font-family="Times,serif" font-size="14.00">cookbook_build_job :varchar(255)</text>
<text text-anchor="start" x="482" y="-917.3" font-family="Times,serif" font-size="14.00">environment_build_job :varchar(255)</text>
<text text-anchor="start" x="482" y="-902.3" font-family="Times,serif" font-size="14.00">description :text</text>
<text text-anchor="start" x="482" y="-887.3" font-family="Times,serif" font-size="14.00">slug :varchar(255)</text>
<text text-anchor="start" x="482" y="-872.3" font-family="Times,serif" font-size="14.00">created_at :datetime</text>
<text text-anchor="start" x="482" y="-857.3" font-family="Times,serif" font-size="14.00">updated_at :datetime</text>
<text text-anchor="start" x="482" y="-842.3" font-family="Times,serif" font-size="14.00">jenkins_user :varchar(255)</text>
<text text-anchor="start" x="482" y="-827.3" font-family="Times,serif" font-size="14.00">jenkins_password :varchar(255)</text>
<text text-anchor="start" x="482" y="-812.3" font-family="Times,serif" font-size="14.00">vcs_server :varchar(255)</text>
<text text-anchor="start" x="482" y="-797.3" font-family="Times,serif" font-size="14.00">vcs_server_user :varchar(255)</text>
<text text-anchor="start" x="482" y="-782.3" font-family="Times,serif" font-size="14.00">vcs_server_user_password :varchar(255)</text>
<text text-anchor="start" x="482" y="-767.3" font-family="Times,serif" font-size="14.00">vcs_server_project :varchar(255)</text>
<text text-anchor="start" x="482" y="-752.3" font-family="Times,serif" font-size="14.00">chef_user :varchar(255)</text>
<text text-anchor="start" x="482" y="-737.3" font-family="Times,serif" font-size="14.00">chef_user_pem :text</text>
<text text-anchor="start" x="482" y="-722.3" font-family="Times,serif" font-size="14.00">supermarket_url :varchar(255)</text>
<text text-anchor="start" x="482" y="-707.3" font-family="Times,serif" font-size="14.00">chef_server_url :varchar(255)</text>
<text text-anchor="start" x="482" y="-692.3" font-family="Times,serif" font-size="14.00">project_type_name :varchar(255)</text>
</g>
<!-- Project&#45;&gt;ProjectConfig -->
<g id="edge12" class="edge"><title>Project&#45;&gt;ProjectConfig</title>
<path fill="none" stroke="#ae70d7" d="M791.194,-695.93C795.664,-691.897 800.105,-687.914 804.5,-684 820.982,-669.321 838.916,-653.893 856.099,-639.364"/>
<ellipse fill="none" stroke="#ae70d7" cx="788.05" cy="-698.775" rx="4.00002" ry="4.00002"/>
<polygon fill="#ae70d7" stroke="#ae70d7" points="856.289,-639.204 866.835,-636.198 860.112,-635.981 863.934,-632.757 863.934,-632.757 863.934,-632.757 860.112,-635.981 861.033,-629.317 856.289,-639.204 856.289,-639.204"/>
</g>
<!-- Project&#45;&gt;Changeset -->
<g id="edge10" class="edge"><title>Project&#45;&gt;Changeset</title>
<path fill="none" stroke="#0a1f62" d="M467.89,-683.185C458.426,-673.474 449.148,-663.955 440.256,-654.831"/>
<ellipse fill="none" stroke="#0a1f62" cx="471.009" cy="-686.384" rx="4.00002" ry="4.00002"/>
<polygon fill="#0a1f62" stroke="#0a1f62" points="440.19,-654.764 436.433,-644.462 436.701,-651.184 433.211,-647.603 433.211,-647.603 433.211,-647.603 436.701,-651.184 429.988,-650.744 440.19,-654.764 440.19,-654.764"/>
</g>
<!-- Cookbook -->
<g id="node16" class="node"><title>Cookbook</title>
<path fill="none" stroke="black" d="M663.5,-496.5C663.5,-496.5 821.5,-496.5 821.5,-496.5 827.5,-496.5 833.5,-502.5 833.5,-508.5 833.5,-508.5 833.5,-635.5 833.5,-635.5 833.5,-641.5 827.5,-647.5 821.5,-647.5 821.5,-647.5 663.5,-647.5 663.5,-647.5 657.5,-647.5 651.5,-641.5 651.5,-635.5 651.5,-635.5 651.5,-508.5 651.5,-508.5 651.5,-502.5 657.5,-496.5 663.5,-496.5"/>
<text text-anchor="middle" x="742.5" y="-632.3" font-family="Times,serif" font-size="14.00">Cookbook</text>
<polyline fill="none" stroke="black" points="651.5,-624.5 833.5,-624.5 "/>
<text text-anchor="start" x="659.5" y="-609.3" font-family="Times,serif" font-size="14.00">id :int(11)</text>
<text text-anchor="start" x="659.5" y="-594.3" font-family="Times,serif" font-size="14.00">name :varchar(255)</text>
<text text-anchor="start" x="659.5" y="-579.3" font-family="Times,serif" font-size="14.00">vcs_url :varchar(255)</text>
<text text-anchor="start" x="659.5" y="-564.3" font-family="Times,serif" font-size="14.00">project_id :int(11)</text>
<text text-anchor="start" x="659.5" y="-549.3" font-family="Times,serif" font-size="14.00">avg_build_time :int(11)</text>
<text text-anchor="start" x="659.5" y="-534.3" font-family="Times,serif" font-size="14.00">created_at :datetime</text>
<text text-anchor="start" x="659.5" y="-519.3" font-family="Times,serif" font-size="14.00">updated_at :datetime</text>
<text text-anchor="start" x="659.5" y="-504.3" font-family="Times,serif" font-size="14.00">slug :varchar(255)</text>
</g>
<!-- Project&#45;&gt;Cookbook -->
<g id="edge9" class="edge"><title>Project&#45;&gt;Cookbook</title>
<path fill="none" stroke="#0596a8" d="M700.015,-676.768C702.767,-670.047 705.471,-663.442 708.1,-657.021"/>
<ellipse fill="none" stroke="#0596a8" cx="698.38" cy="-680.762" rx="4.00001" ry="4.00001"/>
<polygon fill="#0596a8" stroke="#0596a8" points="708.105,-657.009 716.058,-649.46 709.999,-652.382 711.894,-647.755 711.894,-647.755 711.894,-647.755 709.999,-652.382 707.729,-646.05 708.105,-657.009 708.105,-657.009"/>
</g>
<!-- Project&#45;&gt;Stage -->
<g id="edge11" class="edge"><title>Project&#45;&gt;Stage</title>
<path fill="none" stroke="#f2086a" d="M578.952,-676.763C575.448,-664.824 572.052,-653.25 568.876,-642.43"/>
<ellipse fill="none" stroke="#f2086a" cx="580.086" cy="-680.626" rx="4.00001" ry="4.00001"/>
<polygon fill="#f2086a" stroke="#f2086a" points="568.842,-642.312 570.343,-631.449 567.434,-637.514 566.026,-632.717 566.026,-632.717 566.026,-632.717 567.434,-637.514 561.708,-633.984 568.842,-642.312 568.842,-642.312"/>
</g>
<!-- Node -->
<g id="node11" class="node"><title>Node</title>
<path fill="none" stroke="black" d="M1051,-278.5C1051,-278.5 1212,-278.5 1212,-278.5 1218,-278.5 1224,-284.5 1224,-290.5 1224,-290.5 1224,-387.5 1224,-387.5 1224,-393.5 1218,-399.5 1212,-399.5 1212,-399.5 1051,-399.5 1051,-399.5 1045,-399.5 1039,-393.5 1039,-387.5 1039,-387.5 1039,-290.5 1039,-290.5 1039,-284.5 1045,-278.5 1051,-278.5"/>
<text text-anchor="middle" x="1131.5" y="-384.3" font-family="Times,serif" font-size="14.00">Node</text>
<polyline fill="none" stroke="black" points="1039,-376.5 1224,-376.5 "/>
<text text-anchor="start" x="1047" y="-361.3" font-family="Times,serif" font-size="14.00">id :int(11)</text>
<text text-anchor="start" x="1047" y="-346.3" font-family="Times,serif" font-size="14.00">name :varchar(255)</text>
<text text-anchor="start" x="1047" y="-331.3" font-family="Times,serif" font-size="14.00">environment_id :int(11)</text>
<text text-anchor="start" x="1047" y="-316.3" font-family="Times,serif" font-size="14.00">status :int(11)</text>
<text text-anchor="start" x="1047" y="-301.3" font-family="Times,serif" font-size="14.00">created_at :datetime</text>
<text text-anchor="start" x="1047" y="-286.3" font-family="Times,serif" font-size="14.00">updated_at :datetime</text>
</g>
<!-- ErrorReport -->
<g id="node17" class="node"><title>ErrorReport</title>
<path fill="none" stroke="black" d="M1047,-0.5C1047,-0.5 1216,-0.5 1216,-0.5 1222,-0.5 1228,-6.5 1228,-12.5 1228,-12.5 1228,-169.5 1228,-169.5 1228,-175.5 1222,-181.5 1216,-181.5 1216,-181.5 1047,-181.5 1047,-181.5 1041,-181.5 1035,-175.5 1035,-169.5 1035,-169.5 1035,-12.5 1035,-12.5 1035,-6.5 1041,-0.5 1047,-0.5"/>
<text text-anchor="middle" x="1131.5" y="-166.3" font-family="Times,serif" font-size="14.00">ErrorReport</text>
<polyline fill="none" stroke="black" points="1035,-158.5 1228,-158.5 "/>
<text text-anchor="start" x="1043" y="-143.3" font-family="Times,serif" font-size="14.00">id :int(11)</text>
<text text-anchor="start" x="1043" y="-128.3" font-family="Times,serif" font-size="14.00">stacktrace :text</text>
<text text-anchor="start" x="1043" y="-113.3" font-family="Times,serif" font-size="14.00">error_msg :text</text>
<text text-anchor="start" x="1043" y="-98.3" font-family="Times,serif" font-size="14.00">error_passed :text</text>
<text text-anchor="start" x="1043" y="-83.3" font-family="Times,serif" font-size="14.00">changed_resources :text</text>
<text text-anchor="start" x="1043" y="-68.3" font-family="Times,serif" font-size="14.00">node_id :int(11)</text>
<text text-anchor="start" x="1043" y="-53.3" font-family="Times,serif" font-size="14.00">created_at :datetime</text>
<text text-anchor="start" x="1043" y="-38.3" font-family="Times,serif" font-size="14.00">updated_at :datetime</text>
<text text-anchor="start" x="1043" y="-23.3" font-family="Times,serif" font-size="14.00">status :int(11)</text>
<text text-anchor="start" x="1043" y="-8.3" font-family="Times,serif" font-size="14.00">environment_id :int(11)</text>
</g>
<!-- Node&#45;&gt;ErrorReport -->
<g id="edge13" class="edge"><title>Node&#45;&gt;ErrorReport</title>
<path fill="none" stroke="#55cf6e" d="M1131.5,-270.129C1131.5,-245.91 1131.5,-218.097 1131.5,-191.759"/>
<ellipse fill="none" stroke="#55cf6e" cx="1131.5" cy="-274.45" rx="4" ry="4"/>
<polygon fill="#55cf6e" stroke="#55cf6e" points="1131.5,-191.747 1136,-181.747 1131.5,-186.747 1131.5,-181.747 1131.5,-181.747 1131.5,-181.747 1131.5,-186.747 1127,-181.747 1131.5,-191.747 1131.5,-191.747"/>
</g>
<!-- Step -->
<g id="node12" class="node"><title>Step</title>
<path fill="none" stroke="black" d="M380.5,-263.5C380.5,-263.5 526.5,-263.5 526.5,-263.5 532.5,-263.5 538.5,-269.5 538.5,-275.5 538.5,-275.5 538.5,-402.5 538.5,-402.5 538.5,-408.5 532.5,-414.5 526.5,-414.5 526.5,-414.5 380.5,-414.5 380.5,-414.5 374.5,-414.5 368.5,-408.5 368.5,-402.5 368.5,-402.5 368.5,-275.5 368.5,-275.5 368.5,-269.5 374.5,-263.5 380.5,-263.5"/>
<text text-anchor="middle" x="453.5" y="-399.3" font-family="Times,serif" font-size="14.00">Step</text>
<polyline fill="none" stroke="black" points="368.5,-391.5 538.5,-391.5 "/>
<text text-anchor="start" x="376.5" y="-376.3" font-family="Times,serif" font-size="14.00">id :int(11)</text>
<text text-anchor="start" x="376.5" y="-361.3" font-family="Times,serif" font-size="14.00">name :varchar(255)</text>
<text text-anchor="start" x="376.5" y="-346.3" font-family="Times,serif" font-size="14.00">description :text</text>
<text text-anchor="start" x="376.5" y="-331.3" font-family="Times,serif" font-size="14.00">icon :text</text>
<text text-anchor="start" x="376.5" y="-316.3" font-family="Times,serif" font-size="14.00">created_at :datetime</text>
<text text-anchor="start" x="376.5" y="-301.3" font-family="Times,serif" font-size="14.00">updated_at :datetime</text>
<text text-anchor="start" x="376.5" y="-286.3" font-family="Times,serif" font-size="14.00">project_id :int(11)</text>
<text text-anchor="start" x="376.5" y="-271.3" font-family="Times,serif" font-size="14.00">stage_id :int(11)</text>
</g>
<!-- User -->
<g id="node13" class="node"><title>User</title>
<path fill="none" stroke="black" d="M1247,-699.5C1247,-699.5 1502,-699.5 1502,-699.5 1508,-699.5 1514,-705.5 1514,-711.5 1514,-711.5 1514,-988.5 1514,-988.5 1514,-994.5 1508,-1000.5 1502,-1000.5 1502,-1000.5 1247,-1000.5 1247,-1000.5 1241,-1000.5 1235,-994.5 1235,-988.5 1235,-988.5 1235,-711.5 1235,-711.5 1235,-705.5 1241,-699.5 1247,-699.5"/>
<text text-anchor="middle" x="1374.5" y="-985.3" font-family="Times,serif" font-size="14.00">User</text>
<polyline fill="none" stroke="black" points="1235,-977.5 1514,-977.5 "/>
<text text-anchor="start" x="1243" y="-962.3" font-family="Times,serif" font-size="14.00">id :int(11)</text>
<text text-anchor="start" x="1243" y="-947.3" font-family="Times,serif" font-size="14.00">email :varchar(255)</text>
<text text-anchor="start" x="1243" y="-932.3" font-family="Times,serif" font-size="14.00">encrypted_password :varchar(255)</text>
<text text-anchor="start" x="1243" y="-917.3" font-family="Times,serif" font-size="14.00">reset_password_token :varchar(255)</text>
<text text-anchor="start" x="1243" y="-902.3" font-family="Times,serif" font-size="14.00">reset_password_sent_at :datetime</text>
<text text-anchor="start" x="1243" y="-887.3" font-family="Times,serif" font-size="14.00">remember_created_at :datetime</text>
<text text-anchor="start" x="1243" y="-872.3" font-family="Times,serif" font-size="14.00">tokens :text</text>
<text text-anchor="start" x="1243" y="-857.3" font-family="Times,serif" font-size="14.00">provider :varchar(255)</text>
<text text-anchor="start" x="1243" y="-842.3" font-family="Times,serif" font-size="14.00">uid :varchar(255)</text>
<text text-anchor="start" x="1243" y="-827.3" font-family="Times,serif" font-size="14.00">sign_in_count :int(11)</text>
<text text-anchor="start" x="1243" y="-812.3" font-family="Times,serif" font-size="14.00">current_sign_in_at :datetime</text>
<text text-anchor="start" x="1243" y="-797.3" font-family="Times,serif" font-size="14.00">last_sign_in_at :datetime</text>
<text text-anchor="start" x="1243" y="-782.3" font-family="Times,serif" font-size="14.00">current_sign_in_ip :varchar(255)</text>
<text text-anchor="start" x="1243" y="-767.3" font-family="Times,serif" font-size="14.00">last_sign_in_ip :varchar(255)</text>
<text text-anchor="start" x="1243" y="-752.3" font-family="Times,serif" font-size="14.00">created_at :datetime</text>
<text text-anchor="start" x="1243" y="-737.3" font-family="Times,serif" font-size="14.00">updated_at :datetime</text>
<text text-anchor="start" x="1243" y="-722.3" font-family="Times,serif" font-size="14.00">name :varchar(255)</text>
<text text-anchor="start" x="1243" y="-707.3" font-family="Times,serif" font-size="14.00">role :int(11)</text>
</g>
<!-- Environment&#45;&gt;Node -->
<g id="edge14" class="edge"><title>Environment&#45;&gt;Node</title>
<path fill="none" stroke="#946bfa" d="M1131.5,-510.809C1131.5,-479.912 1131.5,-442.104 1131.5,-409.92"/>
<ellipse fill="none" stroke="#946bfa" cx="1131.5" cy="-514.871" rx="4" ry="4"/>
<polygon fill="#946bfa" stroke="#946bfa" points="1131.5,-409.684 1136,-399.684 1131.5,-404.684 1131.5,-399.684 1131.5,-399.684 1131.5,-399.684 1131.5,-404.684 1127,-399.684 1131.5,-409.684 1131.5,-409.684"/>
</g>
<!-- EmailValidator -->
<g id="node15" class="node"><title>EmailValidator</title>
<polygon fill="none" stroke="black" points="1532.5,-827 1532.5,-873 1654.5,-873 1654.5,-827 1532.5,-827"/>
<text text-anchor="middle" x="1593.5" y="-857.8" font-family="Times,serif" font-size="14.00">EmailValidator</text>
<polyline fill="none" stroke="black" points="1532.5,-850 1654.5,-850 "/>
<text text-anchor="middle" x="1593.5" y="-834.8" font-family="Times,serif" font-size="14.00"> </text>
</g>
<!-- Cookbook&#45;&gt;CookbookBuild -->
<g id="edge15" class="edge"><title>Cookbook&#45;&gt;CookbookBuild</title>
<path fill="none" stroke="#628383" d="M716.796,-488.535C714.881,-482.389 712.923,-476.108 710.947,-469.768"/>
<ellipse fill="none" stroke="#628383" cx="718.033" cy="-492.501" rx="4.00001" ry="4.00001"/>
<polygon fill="#628383" stroke="#628383" points="710.806,-469.316 712.127,-458.43 709.319,-464.543 707.831,-459.769 707.831,-459.769 707.831,-459.769 709.319,-464.543 703.535,-461.108 710.806,-469.316 710.806,-469.316"/>
</g>
<!-- Stage&#45;&gt;Step -->
<g id="edge16" class="edge"><title>Stage&#45;&gt;Step</title>
<path fill="none" stroke="#a085b8" d="M520.738,-503.496C510.554,-478.732 498.898,-450.389 488.182,-424.332"/>
<ellipse fill="none" stroke="#a085b8" cx="522.39" cy="-507.512" rx="4.00001" ry="4.00001"/>
<polygon fill="#a085b8" stroke="#a085b8" points="488.085,-424.095 488.443,-413.135 486.183,-419.471 484.281,-414.847 484.281,-414.847 484.281,-414.847 486.183,-419.471 480.119,-416.559 488.085,-424.095 488.085,-424.095"/>
</g>
</g>
</svg>
