<?xml version="1.0" encoding="UTF-8" standalone="no"?>
<!DOCTYPE svg PUBLIC "-//W3C//DTD SVG 1.1//EN"
 "http://www.w3.org/Graphics/SVG/1.1/DTD/svg11.dtd">
<!-- Generated by graphviz version 2.38.0 (20140413.2041)
 -->
<!-- Title: models_diagram Pages: 1 -->
<svg width="1130pt" height="302pt"
 viewBox="0.00 0.00 1129.50 302.00" xmlns="http://www.w3.org/2000/svg" xmlns:xlink="http://www.w3.org/1999/xlink">
<g id="graph0" class="graph" transform="scale(1 1) rotate(0) translate(4 298)">
<title>models_diagram</title>
<polygon fill="none" stroke="none" points="-4,4 -4,-298 1125.5,-298 1125.5,4 -4,4"/>
<!-- _diagram_info -->
<g id="node1" class="node"><title>_diagram_info</title>
<text text-anchor="start" x="8" y="-279.6" font-family="Times,serif" font-size="13.00">Models diagram</text>
<text text-anchor="start" x="8" y="-265.6" font-family="Times,serif" font-size="13.00">Date: May 30 2017 &#45; 10:24</text>
<text text-anchor="start" x="8" y="-251.6" font-family="Times,serif" font-size="13.00">Migration version: 20170527171347</text>
<text text-anchor="start" x="8" y="-237.6" font-family="Times,serif" font-size="13.00">Generated by RailRoady 1.5.2</text>
<text text-anchor="start" x="8" y="-223.6" font-family="Times,serif" font-size="13.00">http://railroady.prestonlee.com</text>
</g>
<!-- CookbookBuild -->
<g id="node2" class="node"><title>CookbookBuild</title>
<ellipse fill="none" stroke="black" cx="501.5" cy="-90" rx="81.4863" ry="18"/>
<text text-anchor="middle" x="501.5" y="-86.3" font-family="Times,serif" font-size="14.00">CookbookBuild</text>
</g>
<!-- BuildJob -->
<g id="node5" class="node"><title>BuildJob</title>
<ellipse fill="none" stroke="black" cx="276.5" cy="-18" rx="50.0912" ry="18"/>
<text text-anchor="middle" x="276.5" y="-14.3" font-family="Times,serif" font-size="14.00">BuildJob</text>
</g>
<!-- CookbookBuild&#45;&gt;BuildJob -->
<g id="edge1" class="edge"><title>CookbookBuild&#45;&gt;BuildJob</title>
<path fill="none" stroke="#94dda6" d="M448.658,-72.5602C409.943,-60.5157 357.966,-44.3451 321.285,-32.9331"/>
<ellipse fill="none" stroke="#94dda6" cx="452.689" cy="-73.8144" rx="4.00001" ry="4.00001"/>
<ellipse fill="#94dda6" stroke="#94dda6" cx="317.057" cy="-31.6177" rx="4.00001" ry="4.00001"/>
</g>
<!-- PullRequest -->
<g id="node8" class="node"><title>PullRequest</title>
<ellipse fill="none" stroke="black" cx="501.5" cy="-18" rx="66.8882" ry="18"/>
<text text-anchor="middle" x="501.5" y="-14.3" font-family="Times,serif" font-size="14.00">PullRequest</text>
</g>
<!-- CookbookBuild&#45;&gt;PullRequest -->
<g id="edge2" class="edge"><title>CookbookBuild&#45;&gt;PullRequest</title>
<path fill="none" stroke="#177c48" d="M501.5,-63.6398C501.5,-57.348 501.5,-50.6053 501.5,-44.3156"/>
<ellipse fill="none" stroke="#177c48" cx="501.5" cy="-67.6966" rx="4" ry="4"/>
<ellipse fill="#177c48" stroke="#177c48" cx="501.5" cy="-40.1043" rx="4" ry="4"/>
</g>
<!-- ProjectConfig -->
<g id="node3" class="node"><title>ProjectConfig</title>
<ellipse fill="none" stroke="black" cx="688.5" cy="-162" rx="50.0912" ry="18"/>
<text text-anchor="middle" x="688.5" y="-158.3" font-family="Times,serif" font-size="14.00">ProjectConfig</text>
</g>
<!-- ApplicationRecord -->
<g id="node4" class="node"><title>ApplicationRecord</title>
<ellipse fill="none" stroke="black" cx="631.5" cy="-255" rx="96.6831" ry="18"/>
<text text-anchor="middle" x="631.5" y="-251.3" font-family="Times,serif" font-size="14.00">ApplicationRecord</text>
</g>
<!-- Organization -->
<g id="node6" class="node"><title>Organization</title>
<ellipse fill="none" stroke="black" cx="828.5" cy="-255" rx="70.6878" ry="18"/>
<text text-anchor="middle" x="828.5" y="-251.3" font-family="Times,serif" font-size="14.00">Organization</text>
</g>
<!-- Environment -->
<g id="node14" class="node"><title>Environment</title>
<ellipse fill="none" stroke="black" cx="828.5" cy="-162" rx="71.4873" ry="18"/>
<text text-anchor="middle" x="828.5" y="-158.3" font-family="Times,serif" font-size="14.00">Environment</text>
</g>
<!-- Organization&#45;&gt;Environment -->
<g id="edge3" class="edge"><title>Organization&#45;&gt;Environment</title>
<path fill="none" stroke="#e5727c" d="M828.5,-228.729C828.5,-216.725 828.5,-202.362 828.5,-190.129"/>
<ellipse fill="none" stroke="#e5727c" cx="828.5" cy="-232.884" rx="4" ry="4"/>
<polygon fill="#e5727c" stroke="#e5727c" points="828.5,-190.04 833,-180.04 828.5,-185.04 828.5,-180.04 828.5,-180.04 828.5,-180.04 828.5,-185.04 824,-180.04 828.5,-190.04 828.5,-190.04"/>
</g>
<!-- StageBuild -->
<g id="node7" class="node"><title>StageBuild</title>
<ellipse fill="none" stroke="black" cx="336.5" cy="-255" rx="61.99" ry="18"/>
<text text-anchor="middle" x="336.5" y="-251.3" font-family="Times,serif" font-size="14.00">StageBuild</text>
</g>
<!-- StageBuild&#45;&gt;BuildJob -->
<g id="edge6" class="edge"><title>StageBuild&#45;&gt;BuildJob</title>
<path fill="none" stroke="#79d680" d="M308.091,-232.612C292.923,-219.347 275.724,-200.879 267.5,-180 249.7,-134.809 260.16,-76.9238 268.752,-44.307"/>
<ellipse fill="none" stroke="#79d680" cx="311.379" cy="-235.389" rx="4.00002" ry="4.00002"/>
<ellipse fill="#79d680" stroke="#79d680" cx="269.925" cy="-40.0514" rx="4.00001" ry="4.00001"/>
</g>
<!-- Changeset -->
<g id="node9" class="node"><title>Changeset</title>
<ellipse fill="none" stroke="black" cx="336.5" cy="-162" rx="60.3893" ry="18"/>
<text text-anchor="middle" x="336.5" y="-158.3" font-family="Times,serif" font-size="14.00">Changeset</text>
</g>
<!-- StageBuild&#45;&gt;Changeset -->
<g id="edge5" class="edge"><title>StageBuild&#45;&gt;Changeset</title>
<path fill="none" stroke="#8975da" d="M330.382,-228.729C329.54,-216.118 329.539,-200.905 330.38,-188.292"/>
<ellipse fill="none" stroke="#8975da" cx="330.743" cy="-232.899" rx="4" ry="4"/>
<ellipse fill="#8975da" stroke="#8975da" cx="330.751" cy="-184.025" rx="4" ry="4"/>
</g>
<!-- Stage -->
<g id="node18" class="node"><title>Stage</title>
<ellipse fill="none" stroke="black" cx="451.5" cy="-162" rx="37.0935" ry="18"/>
<text text-anchor="middle" x="451.5" y="-158.3" font-family="Times,serif" font-size="14.00">Stage</text>
</g>
<!-- StageBuild&#45;&gt;Stage -->
<g id="edge4" class="edge"><title>StageBuild&#45;&gt;Stage</title>
<path fill="none" stroke="#972e8f" d="M363.153,-232.909C382.205,-217.833 407.674,-197.679 426.371,-182.885"/>
<ellipse fill="none" stroke="#972e8f" cx="359.932" cy="-235.458" rx="4.00002" ry="4.00002"/>
<ellipse fill="#972e8f" stroke="#972e8f" cx="429.792" cy="-180.178" rx="4.00002" ry="4.00002"/>
</g>
<!-- Changeset&#45;&gt;CookbookBuild -->
<g id="edge7" class="edge"><title>Changeset&#45;&gt;CookbookBuild</title>
<path fill="none" stroke="#275715" d="M377.296,-143.692C401.198,-133.553 431.435,-120.725 456.091,-110.265"/>
<ellipse fill="none" stroke="#275715" cx="373.573" cy="-145.272" rx="4.00002" ry="4.00002"/>
<polygon fill="#275715" stroke="#275715" points="456.38,-110.142 467.344,-110.379 460.983,-108.189 465.586,-106.236 465.586,-106.236 465.586,-106.236 460.983,-108.189 463.829,-102.094 456.38,-110.142 456.38,-110.142"/>
</g>
<!-- Changeset&#45;&gt;StageBuild -->
<g id="edge8" class="edge"><title>Changeset&#45;&gt;StageBuild</title>
<path fill="none" stroke="#bee836" d="M342.616,-188.235C343.413,-200.141 343.459,-214.374 342.754,-226.549"/>
<ellipse fill="none" stroke="#bee836" cx="342.25" cy="-184.025" rx="4" ry="4"/>
<polygon fill="#bee836" stroke="#bee836" points="342.724,-226.917 337.426,-236.518 342.318,-231.9 341.911,-236.884 341.911,-236.884 341.911,-236.884 342.318,-231.9 346.397,-237.249 342.724,-226.917 342.724,-226.917"/>
</g>
<!-- Project -->
<g id="node10" class="node"><title>Project</title>
<ellipse fill="none" stroke="black" cx="466.5" cy="-255" rx="44.393" ry="18"/>
<text text-anchor="middle" x="466.5" y="-251.3" font-family="Times,serif" font-size="14.00">Project</text>
</g>
<!-- Project&#45;&gt;ProjectConfig -->
<g id="edge12" class="edge"><title>Project&#45;&gt;ProjectConfig</title>
<path fill="none" stroke="#145846" d="M493.804,-234.329C503.501,-227.914 514.695,-221.13 525.5,-216 546.174,-206.184 600.85,-189.03 641.205,-176.9"/>
<ellipse fill="none" stroke="#145846" cx="490.349" cy="-236.665" rx="4.00002" ry="4.00002"/>
<polygon fill="#145846" stroke="#145846" points="641.287,-176.875 652.157,-178.32 646.077,-175.442 650.867,-174.008 650.867,-174.008 650.867,-174.008 646.077,-175.442 649.577,-169.697 641.287,-176.875 641.287,-176.875"/>
</g>
<!-- Project&#45;&gt;Changeset -->
<g id="edge10" class="edge"><title>Project&#45;&gt;Changeset</title>
<path fill="none" stroke="#cecc49" d="M438.592,-234.464C417.592,-219.765 388.83,-199.631 367.185,-184.479"/>
<ellipse fill="none" stroke="#cecc49" cx="442.047" cy="-236.883" rx="4.00002" ry="4.00002"/>
<polygon fill="#cecc49" stroke="#cecc49" points="367.169,-184.468 361.557,-175.047 363.072,-181.601 358.976,-178.733 358.976,-178.733 358.976,-178.733 363.072,-181.601 356.396,-182.42 367.169,-184.468 367.169,-184.468"/>
</g>
<!-- Cookbook -->
<g id="node16" class="node"><title>Cookbook</title>
<ellipse fill="none" stroke="black" cx="563.5" cy="-162" rx="57.3905" ry="18"/>
<text text-anchor="middle" x="563.5" y="-158.3" font-family="Times,serif" font-size="14.00">Cookbook</text>
</g>
<!-- Project&#45;&gt;Cookbook -->
<g id="edge9" class="edge"><title>Project&#45;&gt;Cookbook</title>
<path fill="none" stroke="#2e5524" d="M489.494,-232.429C504.284,-218.553 523.498,-200.528 538.641,-186.321"/>
<ellipse fill="none" stroke="#2e5524" cx="486.313" cy="-235.412" rx="4.00002" ry="4.00002"/>
<polygon fill="#2e5524" stroke="#2e5524" points="538.851,-186.124 549.223,-182.564 542.498,-182.703 546.144,-179.282 546.144,-179.282 546.144,-179.282 542.498,-182.703 543.065,-176 538.851,-186.124 538.851,-186.124"/>
</g>
<!-- Project&#45;&gt;Stage -->
<g id="edge11" class="edge"><title>Project&#45;&gt;Stage</title>
<path fill="none" stroke="#e10308" d="M462.334,-228.729C460.356,-216.725 457.988,-202.362 455.972,-190.129"/>
<ellipse fill="none" stroke="#e10308" cx="463.028" cy="-232.937" rx="4.00001" ry="4.00001"/>
<polygon fill="#e10308" stroke="#e10308" points="455.935,-189.907 458.749,-179.308 455.122,-184.973 454.309,-180.04 454.309,-180.04 454.309,-180.04 455.122,-184.973 449.869,-180.772 455.935,-189.907 455.935,-189.907"/>
</g>
<!-- Node -->
<g id="node11" class="node"><title>Node</title>
<ellipse fill="none" stroke="black" cx="828.5" cy="-90" rx="35.9954" ry="18"/>
<text text-anchor="middle" x="828.5" y="-86.3" font-family="Times,serif" font-size="14.00">Node</text>
</g>
<!-- ErrorReport -->
<g id="node17" class="node"><title>ErrorReport</title>
<ellipse fill="none" stroke="black" cx="828.5" cy="-18" rx="67.6881" ry="18"/>
<text text-anchor="middle" x="828.5" y="-14.3" font-family="Times,serif" font-size="14.00">ErrorReport</text>
</g>
<!-- Node&#45;&gt;ErrorReport -->
<g id="edge13" class="edge"><title>Node&#45;&gt;ErrorReport</title>
<path fill="none" stroke="#8558d8" d="M828.5,-63.6398C828.5,-58.0629 828.5,-52.1319 828.5,-46.4761"/>
<ellipse fill="none" stroke="#8558d8" cx="828.5" cy="-67.6966" rx="4" ry="4"/>
<polygon fill="#8558d8" stroke="#8558d8" points="828.5,-46.1043 833,-36.1043 828.5,-41.1043 828.5,-36.1043 828.5,-36.1043 828.5,-36.1043 828.5,-41.1043 824,-36.1044 828.5,-46.1043 828.5,-46.1043"/>
</g>
<!-- Step -->
<g id="node12" class="node"><title>Step</title>
<ellipse fill="none" stroke="black" cx="370.5" cy="-90" rx="31.6951" ry="18"/>
<text text-anchor="middle" x="370.5" y="-86.3" font-family="Times,serif" font-size="14.00">Step</text>
</g>
<!-- User -->
<g id="node13" class="node"><title>User</title>
<ellipse fill="none" stroke="black" cx="949.5" cy="-255" rx="32.4942" ry="18"/>
<text text-anchor="middle" x="949.5" y="-251.3" font-family="Times,serif" font-size="14.00">User</text>
</g>
<!-- Environment&#45;&gt;Node -->
<g id="edge14" class="edge"><title>Environment&#45;&gt;Node</title>
<path fill="none" stroke="#06c111" d="M828.5,-135.64C828.5,-130.063 828.5,-124.132 828.5,-118.476"/>
<ellipse fill="none" stroke="#06c111" cx="828.5" cy="-139.697" rx="4" ry="4"/>
<polygon fill="#06c111" stroke="#06c111" points="828.5,-118.104 833,-108.104 828.5,-113.104 828.5,-108.104 828.5,-108.104 828.5,-108.104 828.5,-113.104 824,-108.104 828.5,-118.104 828.5,-118.104"/>
</g>
<!-- EmailValidator -->
<g id="node15" class="node"><title>EmailValidator</title>
<polygon fill="none" stroke="black" points="1121.5,-273 999.5,-273 999.5,-237 1121.5,-237 1121.5,-273"/>
<text text-anchor="middle" x="1060.5" y="-251.3" font-family="Times,serif" font-size="14.00">EmailValidator</text>
</g>
<!-- Cookbook&#45;&gt;CookbookBuild -->
<g id="edge15" class="edge"><title>Cookbook&#45;&gt;CookbookBuild</title>
<path fill="none" stroke="#3add0a" d="M543.3,-138.194C536.898,-130.965 529.794,-122.944 523.285,-115.596"/>
<ellipse fill="none" stroke="#3add0a" cx="546.155" cy="-141.417" rx="4.00002" ry="4.00002"/>
<polygon fill="#3add0a" stroke="#3add0a" points="523.149,-115.442 519.887,-104.973 519.834,-111.699 516.518,-107.956 516.518,-107.956 516.518,-107.956 519.834,-111.699 513.15,-110.94 523.149,-115.442 523.149,-115.442"/>
</g>
<!-- Stage&#45;&gt;Step -->
<g id="edge16" class="edge"><title>Stage&#45;&gt;Step</title>
<path fill="none" stroke="#3448f9" d="M427.788,-140.508C417.411,-131.54 405.247,-121.029 394.804,-112.003"/>
<ellipse fill="none" stroke="#3448f9" cx="430.898" cy="-143.196" rx="4.00002" ry="4.00002"/>
<polygon fill="#3448f9" stroke="#3448f9" points="394.777,-111.98 390.154,-102.037 390.994,-108.711 387.211,-105.442 387.211,-105.442 387.211,-105.442 390.994,-108.711 384.269,-108.846 394.777,-111.98 394.777,-111.98"/>
</g>
</g>
</svg>
